<svg width="24" height="24" viewBox="0 0 24 24" fill="none" xmlns="http://www.w3.org/2000/svg">
<g clip-path="url(#clip0_2054_234)">
<path fill-rule="evenodd" clip-rule="evenodd" d="M12 2.25C6.61522 2.25 2.25 6.61522 2.25 12C2.25 17.3848 6.61522 21.75 12 21.75C17.3848 21.75 21.75 17.3848 21.75 12C21.7443 6.61758 17.3824 2.25568 12 2.25ZM12 20.25C7.44365 20.25 3.75 16.5563 3.75 12C3.75 7.44365 7.44365 3.75 12 3.75C16.5563 3.75 20.25 7.44365 20.25 12C20.2448 16.5542 16.5542 20.2448 12 20.25ZM16.2806 11.4694C16.4215 11.6101 16.5006 11.8009 16.5006 12C16.5006 12.1991 16.4215 12.3899 16.2806 12.5306L13.2806 15.5306C12.9876 15.8237 12.5124 15.8237 12.2194 15.5306C11.9263 15.2376 11.9263 14.7624 12.2194 14.4694L13.9397 12.75H8.25C7.83579 12.75 7.5 12.4142 7.5 12C7.5 11.5858 7.83579 11.25 8.25 11.25H13.9397L12.2194 9.53063C11.9263 9.23757 11.9263 8.76243 12.2194 8.46937C12.5124 8.17632 12.9876 8.17632 13.2806 8.46937L16.2806 11.4694Z" fill="#121417"/>
</g>
<defs>
<clipPath id="clip0_2054_234">
<rect width="24" height="24" fill="white"/>
</clipPath>
</defs>
</svg>
